<?xml version="1.0" standalone="no"?>
<!DOCTYPE svg PUBLIC "-//W3C//DTD SVG 20010904//EN"
 "http://www.w3.org/TR/2001/REC-SVG-20010904/DTD/svg10.dtd">
<svg version="1.0" xmlns="http://www.w3.org/2000/svg"
 width="192.000000pt" height="192.000000pt" viewBox="0 0 192.000000 192.000000"
 preserveAspectRatio="xMidYMid meet">

<g transform="translate(0.000000,192.000000) scale(0.100000,-0.100000)"
fill="#6033e8" stroke="none">
<path d="M690 1891 c-6 -12 -10 -126 -10 -300 l0 -281 -26 -17 c-24 -15 -29
-15 -53 -2 -26 15 -26 16 -31 159 -3 80 -9 151 -13 158 -13 19 -181 16 -201
-4 -14 -13 -16 -48 -16 -228 0 -227 -2 -236 -50 -236 -43 0 -60 28 -60 98 0
83 -10 92 -111 92 -127 0 -119 24 -119 -373 0 -285 2 -336 16 -355 14 -20 24
-22 103 -22 54 0 91 4 99 12 7 7 12 40 12 78 0 72 16 100 58 100 48 0 52 -17
52 -236 0 -123 4 -213 10 -225 9 -17 22 -19 105 -19 64 0 96 4 102 13 4 6 10
142 13 302 l5 289 26 15 c24 13 29 13 53 -2 l26 -17 0 -433 c0 -323 3 -436 12
-445 8 -8 46 -12 105 -12 81 0 94 2 103 19 14 27 14 1845 0 1872 -9 17 -22 19
-105 19 -83 0 -96 -2 -105 -19z"/>
<path d="M1058 1881 l-33 -29 0 -897 0 -897 33 -29 c38 -34 102 -40 141 -13
49 35 51 55 51 478 l0 395 22 15 c28 20 39 20 64 2 18 -13 19 -32 24 -286 l5
-272 33 -29 c51 -46 131 -37 169 20 15 22 19 57 23 221 l5 195 28 9 c48 17 63
0 84 -99 17 -85 126 -112 186 -45 l27 30 0 304 c0 289 -1 305 -20 329 -67 85
-200 36 -200 -74 0 -42 -24 -69 -61 -69 -46 0 -49 13 -49 190 0 188 -8 228
-52 265 -27 23 -39 26 -76 22 -30 -3 -53 -13 -71 -31 -25 -25 -26 -33 -31
-152 -4 -109 -8 -127 -24 -140 -25 -18 -36 -18 -64 2 -22 15 -22 18 -22 265 0
268 -5 300 -51 333 -39 27 -103 21 -141 -13z"/>
</g>
</svg>
